<mxfile host="Electron" modified="2024-03-28T23:32:03.089Z" agent="Mozilla/5.0 (Windows NT 10.0; Win64; x64) AppleWebKit/537.36 (KHTML, like Gecko) draw.io/24.1.0 Chrome/120.0.6099.109 Electron/28.1.0 Safari/537.36" etag="cX_Vq5jRTtXKH-JpkDXV" version="24.1.0" type="device">
  <diagram name="Página-1" id="JkeJf53_Tc5DrPLgHJQM">
    <mxGraphModel dx="1420" dy="830" grid="1" gridSize="10" guides="1" tooltips="1" connect="1" arrows="1" fold="1" page="1" pageScale="1" pageWidth="827" pageHeight="1169" background="#CCE5FF" math="0" shadow="0">
      <root>
        <mxCell id="0" />
        <mxCell id="1" parent="0" />
        <mxCell id="Xt3H7Z73HN_w-YoTecYS-1" value="&lt;p style=&quot;line-height: 100%;&quot;&gt;&lt;font style=&quot;font-size: 15px;&quot; color=&quot;#000000&quot; face=&quot;Comic Sans MS&quot;&gt;&lt;b&gt;7&lt;br&gt;&lt;br&gt;Hacer un programa para ingresar por teclado tres números e informar con una leyenda aclaratoria si los tres son todos distintos entre sí, caso contrario no emitir nada. &lt;br&gt;&lt;br&gt;Tener en cuenta: Si A es distinto de B y B es distinto de C, eso no significa que A y C sean distintos. Ejemplo: A=8, B=6 y C=8.&lt;/b&gt;&lt;/font&gt;&lt;/p&gt;" style="text;whiteSpace=wrap;html=1;fontFamily=Architects Daughter;fontSource=https%3A%2F%2Ffonts.googleapis.com%2Fcss%3Ffamily%3DArchitects%2BDaughter;" vertex="1" parent="1">
          <mxGeometry x="90" width="670" height="140" as="geometry" />
        </mxCell>
        <mxCell id="Xt3H7Z73HN_w-YoTecYS-7" value="" style="group;aspect=fixed;" vertex="1" connectable="0" parent="1">
          <mxGeometry x="350" y="170" width="60" height="40" as="geometry" />
        </mxCell>
        <mxCell id="Xt3H7Z73HN_w-YoTecYS-2" value="" style="strokeWidth=2;html=1;shape=mxgraph.flowchart.start_2;whiteSpace=wrap;rounded=0;labelBackgroundColor=none;strokeColor=#000000;align=center;verticalAlign=middle;fontFamily=Helvetica;fontSize=12;fontColor=default;fillColor=#d5e8d4;" vertex="1" parent="Xt3H7Z73HN_w-YoTecYS-7">
          <mxGeometry x="10" width="40" height="40" as="geometry" />
        </mxCell>
        <mxCell id="Xt3H7Z73HN_w-YoTecYS-4" value="&lt;b&gt;&lt;font color=&quot;#000000&quot; style=&quot;font-size: 17px;&quot; face=&quot;Comic Sans MS&quot;&gt;I&lt;/font&gt;&lt;/b&gt;" style="text;strokeColor=none;align=center;fillColor=none;html=1;verticalAlign=middle;whiteSpace=wrap;rounded=0;fontFamily=Architects Daughter;fontSource=https%3A%2F%2Ffonts.googleapis.com%2Fcss%3Ffamily%3DArchitects%2BDaughter;" vertex="1" parent="Xt3H7Z73HN_w-YoTecYS-7">
          <mxGeometry y="5" width="60" height="30" as="geometry" />
        </mxCell>
        <mxCell id="Xt3H7Z73HN_w-YoTecYS-6" style="edgeStyle=orthogonalEdgeStyle;rounded=0;sketch=1;hachureGap=4;jiggle=2;curveFitting=1;orthogonalLoop=1;jettySize=auto;html=1;exitX=0.5;exitY=1;exitDx=0;exitDy=0;fontFamily=Architects Daughter;fontSource=https%3A%2F%2Ffonts.googleapis.com%2Fcss%3Ffamily%3DArchitects%2BDaughter;" edge="1" parent="Xt3H7Z73HN_w-YoTecYS-7" source="Xt3H7Z73HN_w-YoTecYS-4" target="Xt3H7Z73HN_w-YoTecYS-4">
          <mxGeometry relative="1" as="geometry" />
        </mxCell>
        <mxCell id="Xt3H7Z73HN_w-YoTecYS-8" value="" style="group" vertex="1" connectable="0" parent="1">
          <mxGeometry x="350" y="540" width="60" height="40" as="geometry" />
        </mxCell>
        <mxCell id="Xt3H7Z73HN_w-YoTecYS-3" value="" style="strokeWidth=2;html=1;shape=mxgraph.flowchart.start_2;whiteSpace=wrap;rounded=0;labelBackgroundColor=none;strokeColor=#000000;align=center;verticalAlign=middle;fontFamily=Helvetica;fontSize=12;fontColor=default;fillColor=#d5e8d4;aspect=fixed;" vertex="1" parent="Xt3H7Z73HN_w-YoTecYS-8">
          <mxGeometry x="10" width="40" height="40" as="geometry" />
        </mxCell>
        <mxCell id="Xt3H7Z73HN_w-YoTecYS-5" value="&lt;b&gt;&lt;font color=&quot;#000000&quot; style=&quot;font-size: 17px;&quot; face=&quot;Comic Sans MS&quot;&gt;F&lt;/font&gt;&lt;/b&gt;" style="text;strokeColor=none;align=center;fillColor=none;html=1;verticalAlign=middle;whiteSpace=wrap;rounded=0;fontFamily=Architects Daughter;fontSource=https://fonts.googleapis.com/css?family=Architects+Daughter;aspect=fixed;" vertex="1" parent="Xt3H7Z73HN_w-YoTecYS-8">
          <mxGeometry y="5" width="60" height="30" as="geometry" />
        </mxCell>
        <mxCell id="Xt3H7Z73HN_w-YoTecYS-14" value="" style="group" vertex="1" connectable="0" parent="1">
          <mxGeometry x="295" y="230" width="170" height="35.79000000000002" as="geometry" />
        </mxCell>
        <mxCell id="Xt3H7Z73HN_w-YoTecYS-9" value="" style="shape=trapezoid;perimeter=trapezoidPerimeter;whiteSpace=wrap;html=1;fixedSize=1;rounded=0;labelBackgroundColor=none;strokeColor=#121211;strokeWidth=2;align=center;verticalAlign=middle;fontFamily=Helvetica;fontSize=12;fontColor=default;fillColor=#d5e8d4;direction=west;container=0;aspect=fixed;" vertex="1" parent="Xt3H7Z73HN_w-YoTecYS-14">
          <mxGeometry width="170" height="35.79" as="geometry">
            <mxRectangle x="-1020" y="-650" width="50" height="40" as="alternateBounds" />
          </mxGeometry>
        </mxCell>
        <mxCell id="Xt3H7Z73HN_w-YoTecYS-13" value="&lt;font face=&quot;Comic Sans MS&quot; color=&quot;#000000&quot;&gt;&lt;span style=&quot;font-size: 14px;&quot;&gt;num1, num2, num3&lt;/span&gt;&lt;/font&gt;" style="text;strokeColor=none;align=center;fillColor=none;html=1;verticalAlign=middle;whiteSpace=wrap;rounded=0;fontFamily=Architects Daughter;fontSource=https%3A%2F%2Ffonts.googleapis.com%2Fcss%3Ffamily%3DArchitects%2BDaughter;fontStyle=1;container=0;aspect=fixed;" vertex="1" parent="Xt3H7Z73HN_w-YoTecYS-14">
          <mxGeometry x="15" y="4.350000000000023" width="140" height="27.1" as="geometry" />
        </mxCell>
        <mxCell id="Xt3H7Z73HN_w-YoTecYS-22" value="" style="line;strokeWidth=2;direction=south;html=1;hachureGap=4;fontFamily=Architects Daughter;fontSource=https://fonts.googleapis.com/css?family=Architects+Daughter;strokeColor=#000000;" vertex="1" parent="Xt3H7Z73HN_w-YoTecYS-14">
          <mxGeometry x="80" y="-20" width="10" height="20" as="geometry" />
        </mxCell>
        <mxCell id="Xt3H7Z73HN_w-YoTecYS-16" value="" style="group" vertex="1" connectable="0" parent="1">
          <mxGeometry x="300" y="300" width="160" height="160" as="geometry" />
        </mxCell>
        <mxCell id="Xt3H7Z73HN_w-YoTecYS-12" value="" style="rhombus;whiteSpace=wrap;html=1;rounded=0;labelBackgroundColor=none;strokeColor=#0F140C;strokeWidth=2;align=center;verticalAlign=middle;fontFamily=Helvetica;fontSize=12;fontColor=default;fillColor=#d5e8d4;aspect=fixed;" vertex="1" parent="Xt3H7Z73HN_w-YoTecYS-16">
          <mxGeometry width="160" height="160" as="geometry" />
        </mxCell>
        <mxCell id="Xt3H7Z73HN_w-YoTecYS-15" value="&lt;b style=&quot;&quot;&gt;&lt;font face=&quot;Comic Sans MS&quot; color=&quot;#000000&quot; style=&quot;font-size: 12px;&quot;&gt;num1 != num2&lt;/font&gt;&lt;/b&gt;&lt;div style=&quot;&quot;&gt;&lt;b&gt;&lt;font face=&quot;Comic Sans MS&quot; color=&quot;#000000&quot; style=&quot;font-size: 12px;&quot;&gt;&amp;amp;&amp;amp;&lt;/font&gt;&lt;/b&gt;&lt;/div&gt;&lt;div style=&quot;&quot;&gt;&lt;b style=&quot;&quot;&gt;&lt;font face=&quot;Comic Sans MS&quot; color=&quot;#000000&quot; style=&quot;font-size: 12px;&quot;&gt;num2 != num3&lt;/font&gt;&lt;/b&gt;&lt;/div&gt;&lt;div style=&quot;&quot;&gt;&lt;b style=&quot;&quot;&gt;&lt;font face=&quot;Comic Sans MS&quot; color=&quot;#000000&quot; style=&quot;font-size: 12px;&quot;&gt;&amp;amp;&amp;amp;&lt;/font&gt;&lt;/b&gt;&lt;/div&gt;&lt;div style=&quot;&quot;&gt;&lt;b style=&quot;&quot;&gt;&lt;font face=&quot;Comic Sans MS&quot; color=&quot;#000000&quot; style=&quot;font-size: 12px;&quot;&gt;num1 != num3&lt;/font&gt;&lt;/b&gt;&lt;/div&gt;" style="text;strokeColor=none;align=center;fillColor=none;html=1;verticalAlign=middle;whiteSpace=wrap;rounded=0;fontFamily=Architects Daughter;fontSource=https%3A%2F%2Ffonts.googleapis.com%2Fcss%3Ffamily%3DArchitects%2BDaughter;aspect=fixed;" vertex="1" parent="Xt3H7Z73HN_w-YoTecYS-16">
          <mxGeometry x="30" y="55" width="100" height="50" as="geometry" />
        </mxCell>
        <mxCell id="Xt3H7Z73HN_w-YoTecYS-18" value="" style="group" vertex="1" connectable="0" parent="1">
          <mxGeometry x="173" y="430" width="140" height="40" as="geometry" />
        </mxCell>
        <mxCell id="Xt3H7Z73HN_w-YoTecYS-10" value="" style="shape=trapezoid;perimeter=trapezoidPerimeter;whiteSpace=wrap;html=1;fixedSize=1;rounded=0;labelBackgroundColor=none;strokeColor=#0F140C;strokeWidth=2;align=center;verticalAlign=middle;fontFamily=Helvetica;fontSize=12;fontColor=default;fillColor=#d5e8d4;aspect=fixed;" vertex="1" parent="Xt3H7Z73HN_w-YoTecYS-18">
          <mxGeometry width="140" height="40" as="geometry" />
        </mxCell>
        <mxCell id="Xt3H7Z73HN_w-YoTecYS-17" value="&lt;font color=&quot;#000000&quot; size=&quot;1&quot; face=&quot;Comic Sans MS&quot;&gt;&lt;b style=&quot;font-size: 15px;&quot;&gt;son_distintos&lt;/b&gt;&lt;/font&gt;" style="text;strokeColor=none;align=center;fillColor=none;html=1;verticalAlign=middle;whiteSpace=wrap;rounded=0;fontFamily=Architects Daughter;fontSource=https%3A%2F%2Ffonts.googleapis.com%2Fcss%3Ffamily%3DArchitects%2BDaughter;aspect=fixed;" vertex="1" parent="Xt3H7Z73HN_w-YoTecYS-18">
          <mxGeometry x="20" y="5" width="100" height="30" as="geometry" />
        </mxCell>
        <mxCell id="Xt3H7Z73HN_w-YoTecYS-19" value="" style="line;strokeWidth=2;direction=south;html=1;hachureGap=4;fontFamily=Architects Daughter;fontSource=https://fonts.googleapis.com/css?family=Architects+Daughter;strokeColor=#000000;" vertex="1" parent="1">
          <mxGeometry x="238" y="380" width="10" height="50" as="geometry" />
        </mxCell>
        <mxCell id="Xt3H7Z73HN_w-YoTecYS-20" value="" style="line;strokeWidth=2;direction=south;html=1;hachureGap=4;fontFamily=Architects Daughter;fontSource=https://fonts.googleapis.com/css?family=Architects+Daughter;strokeColor=#000000;" vertex="1" parent="1">
          <mxGeometry x="238" y="470" width="10" height="40" as="geometry" />
        </mxCell>
        <mxCell id="Xt3H7Z73HN_w-YoTecYS-21" value="" style="line;strokeWidth=2;direction=south;html=1;hachureGap=4;fontFamily=Architects Daughter;fontSource=https://fonts.googleapis.com/css?family=Architects+Daughter;strokeColor=#000000;" vertex="1" parent="1">
          <mxGeometry x="375" y="265.79" width="10" height="34.21" as="geometry" />
        </mxCell>
        <mxCell id="Xt3H7Z73HN_w-YoTecYS-25" value="" style="line;strokeWidth=2;html=1;perimeter=backbonePerimeter;points=[];outlineConnect=0;hachureGap=4;fontFamily=Architects Daughter;fontSource=https://fonts.googleapis.com/css?family=Architects+Daughter;strokeColor=#000000;" vertex="1" parent="1">
          <mxGeometry x="460" y="375" width="70" height="10" as="geometry" />
        </mxCell>
        <mxCell id="Xt3H7Z73HN_w-YoTecYS-26" value="" style="line;strokeWidth=2;html=1;perimeter=backbonePerimeter;points=[];outlineConnect=0;hachureGap=4;fontFamily=Architects Daughter;fontSource=https://fonts.googleapis.com/css?family=Architects+Daughter;strokeColor=#000000;" vertex="1" parent="1">
          <mxGeometry x="240" y="376" width="60" height="10" as="geometry" />
        </mxCell>
        <mxCell id="Xt3H7Z73HN_w-YoTecYS-27" value="" style="line;strokeWidth=2;html=1;perimeter=backbonePerimeter;points=[];outlineConnect=0;hachureGap=4;fontFamily=Architects Daughter;fontSource=https://fonts.googleapis.com/css?family=Architects+Daughter;strokeColor=#000000;" vertex="1" parent="1">
          <mxGeometry x="240" y="504" width="290" height="10" as="geometry" />
        </mxCell>
        <mxCell id="Xt3H7Z73HN_w-YoTecYS-28" value="" style="line;strokeWidth=2;direction=south;html=1;hachureGap=4;fontFamily=Architects Daughter;fontSource=https://fonts.googleapis.com/css?family=Architects+Daughter;strokeColor=#000000;" vertex="1" parent="1">
          <mxGeometry x="523" y="380" width="10" height="130" as="geometry" />
        </mxCell>
        <mxCell id="Xt3H7Z73HN_w-YoTecYS-29" value="" style="line;strokeWidth=2;direction=south;html=1;hachureGap=4;fontFamily=Architects Daughter;fontSource=https://fonts.googleapis.com/css?family=Architects+Daughter;strokeColor=#000000;" vertex="1" parent="1">
          <mxGeometry x="375" y="510" width="10" height="30" as="geometry" />
        </mxCell>
      </root>
    </mxGraphModel>
  </diagram>
</mxfile>
